<svg id="Items" 
xmlns="http://www.w3.org/2000/svg" 
viewBox="0 0 717.13 746.05">
<defs>
<style>
.cls-1{
    fill:#b5c4da;
}
.cls-2{
    fill:none;
    stroke:#b5c4da;
    stroke-linecap:round;
    stroke-miterlimit:10;
    stroke-width:100px;
}
</style>
</defs>
<path class="cls-1" 
d="M961.49,245A1244.13,1244.13,0,0,1,1194.33,267a42.12,42.12,0,0,1,34,37.05c7.5,73,11.6,147.2,12.2,220.55A2358.66,2358.66,0,0,1,1228.7,779.8a42.25,42.25,0,0,1-35.59,37.6A1535.81,1535.81,0,0,1,961.47,835c-3.48,0-7,0-10.46,0a1536.7,1536.7,0,0,1-222.4-17.78,42.45,42.45,0,0,1-35.69-37,2076.26,2076.26,0,0,1,.45-476.38,41.91,41.91,0,0,1,33.78-36.52A1243.58,1243.58,0,0,1,955.84,245l5.65,0h0m0-78-6,0a1318.5,1318.5,0,0,0-243.07,23.73,120.12,120.12,0,0,0-96.52,104.1,2154,2154,0,0,0-.46,494.27A120.32,120.32,0,0,0,716.75,894.31,1610.33,1610.33,0,0,0,950.48,913c3.68,0,7.34,0,11,0a1610.84,1610.84,0,0,0,243.44-18.52,120.27,120.27,0,0,0,101.4-106.88A2428.63,2428.63,0,0,0,1318.48,524c-.67-81.5-5.4-157.71-12.6-227.87A120.11,120.11,0,0,0,1209,190.42,1318.36,1318.36,0,0,0,961.48,167Z" 
transform="translate(-601.44 -166.97)"/>
<line class="cls-2" x1="358.56" y1="206.53" x2="358.56" y2="539.53"/>
<line class="cls-2" 
x1="192.06" 
y1="373.03" 
x2="525.06" 
y2="373.03"/>
</svg>