<svg id="Items" 
xmlns="http://www.w3.org/2000/svg" 
viewBox="0 0 717.13 746.05">
<defs>
<style>
.cls-1{
    fill:#00d1c7;
}
.cls-2{
    fill:none;
    stroke:#fff;
    stroke-linecap:round;
    stroke-miterlimit:10;
    stroke-width:100px;
}
</style>
</defs>
<path class="cls-1" 
d="M1306.31,787.63a120.27,120.27,0,0,1-101.4,106.88A1610.39,1610.39,0,0,1,950.48,913a1610.33,1610.33,0,0,1-233.73-18.68A120.34,120.34,0,0,1,615.42,789.09a2154.71,2154.71,0,0,1,.47-494.27,120.12,120.12,0,0,1,96.52-104.1,1318.16,1318.16,0,0,1,496.56-.3,120.11,120.11,0,0,1,96.91,105.7c7.2,70.16,11.93,146.37,12.6,227.87A2428.63,2428.63,0,0,1,1306.31,787.63Z" 
transform="translate(-601.44 -166.97)"/>
<line class="cls-2" 
x1="358.56" 
y1="206.53" 
x2="358.56" 
y2="539.53"/>
<line class="cls-2" 
x1="192.06" 
y1="373.03" 
x2="525.06" 
y2="373.03"/>
</svg>