<svg id="Layer_1" data-name="Layer 1" xmlns="http://www.w3.org/2000/svg" viewBox="0 0 1323.25 1171.5"><defs><style>.cls-1{fill:#f9ae00;}.cls-2{fill:#fdd83b;}.cls-3{fill:#80cdf6;}</style></defs><circle class="cls-1" cx="529.5" cy="533" r="292"/><path class="cls-2" d="M394.25,1065.5a17.49,17.49,0,0,1-17.5-17.5V888a17.5,17.5,0,0,1,35,0v160A17.49,17.49,0,0,1,394.25,1065.5Z" transform="translate(131.25 0.5)"/><path class="cls-2" d="M394.25,194.5a17.49,17.49,0,0,1-17.5-17.5V17a17.5,17.5,0,0,1,35,0V177A17.49,17.49,0,0,1,394.25,194.5Z" transform="translate(131.25 0.5)"/><path class="cls-2" d="M910.25,553.5h-160a17.5,17.5,0,0,1,0-35h160a17.5,17.5,0,0,1,0,35Z" transform="translate(131.25 0.5)"/><path class="cls-2" d="M112.44,306.42a17.42,17.42,0,0,1-9.81-3L-29.78,213.57a17.51,17.51,0,0,1-4.65-24.31,17.5,17.5,0,0,1,24.3-4.66l132.41,89.83a17.51,17.51,0,0,1-9.84,32Z" transform="translate(131.25 0.5)"/><path class="cls-2" d="M780.44,890.42a17.42,17.42,0,0,1-9.81-3L638.22,797.57a17.5,17.5,0,0,1,19.65-29l132.41,89.83a17.51,17.51,0,0,1-9.84,32Z" transform="translate(131.25 0.5)"/><path class="cls-2" d="M46.25,553.5h-160a17.49,17.49,0,0,1-17.5-17.5,17.49,17.49,0,0,1,17.5-17.5h160a17.5,17.5,0,0,1,0,35Z" transform="translate(131.25 0.5)"/><path class="cls-2" d="M668.56,308.92a17.51,17.51,0,0,1-9.84-32L791.13,187.1a17.5,17.5,0,0,1,19.65,29L678.37,305.9A17.42,17.42,0,0,1,668.56,308.92Z" transform="translate(131.25 0.5)"/><path class="cls-2" d="M17.56,889.92a17.51,17.51,0,0,1-9.84-32L140.13,768.1a17.5,17.5,0,0,1,19.65,29L27.37,886.9A17.42,17.42,0,0,1,17.56,889.92Z" transform="translate(131.25 0.5)"/><path class="cls-3" d="M1192,962c0-113-89.7-205.06-201.78-208.86a180.5,180.5,0,1,0-334.18-98,157.08,157.08,0,0,0-225.65,86.07A221.55,221.55,0,0,0,352,727c-122.61,0-222,99.39-222,222a221.41,221.41,0,0,0,72.22,163.85h0A221.2,221.2,0,0,0,352,1171q11.08,0,21.9-1.07h.16l-.16,1.08H1017l2.12-3.12C1117.33,1150.77,1192,1065.11,1192,962Z" transform="translate(131.25 0.5)"/></svg>