<svg id="Layer_1" data-name="Layer 1" xmlns="http://www.w3.org/2000/svg" viewBox="0 0 1346.63 1217.25"><defs><style>.cls-1{fill:#f9ae00;}.cls-2{fill:#fdd83b;}.cls-3{fill:#80cdf6;opacity:0.7;}</style></defs><circle class="cls-1" cx="552.88" cy="533" r="292"/><path class="cls-2" d="M59,1262.17a17.5,17.5,0,0,1-17.5-17.5v-160a17.5,17.5,0,0,1,35,0v160A17.49,17.49,0,0,1,59,1262.17Z" transform="translate(489.88 -196.17)"/><path class="cls-2" d="M59,391.17a17.5,17.5,0,0,1-17.5-17.5v-160a17.5,17.5,0,1,1,35,0v160A17.49,17.49,0,0,1,59,391.17Z" transform="translate(489.88 -196.17)"/><path class="cls-2" d="M575,750.17H415a17.5,17.5,0,1,1,0-35H575a17.5,17.5,0,0,1,0,35Z" transform="translate(489.88 -196.17)"/><path class="cls-2" d="M-222.82,503.09a17.44,17.44,0,0,1-9.81-3L-365,410.24a17.51,17.51,0,0,1-4.66-24.31,17.51,17.51,0,0,1,24.31-4.66L-213,471.1a17.51,17.51,0,0,1,4.66,24.31A17.49,17.49,0,0,1-222.82,503.09Z" transform="translate(489.88 -196.17)"/><path class="cls-2" d="M445.18,1087.09a17.44,17.44,0,0,1-9.81-3L303,994.24a17.5,17.5,0,1,1,19.65-29L455,1055.1a17.5,17.5,0,0,1-9.84,32Z" transform="translate(489.88 -196.17)"/><path class="cls-2" d="M-289,750.17H-449a17.5,17.5,0,0,1-17.5-17.5,17.5,17.5,0,0,1,17.5-17.5h160a17.49,17.49,0,0,1,17.5,17.5A17.49,17.49,0,0,1-289,750.17Z" transform="translate(489.88 -196.17)"/><path class="cls-2" d="M333.31,505.59a17.5,17.5,0,0,1-9.84-32l132.4-89.83a17.5,17.5,0,0,1,19.65,29l-132.4,89.83A17.44,17.44,0,0,1,333.31,505.59Z" transform="translate(489.88 -196.17)"/><path class="cls-2" d="M-317.69,1086.59a17.49,17.49,0,0,1-14.5-7.68,17.51,17.51,0,0,1,4.66-24.31l132.4-89.83a17.51,17.51,0,0,1,24.31,4.66,17.51,17.51,0,0,1-4.66,24.31l-132.4,89.83A17.44,17.44,0,0,1-317.69,1086.59Z" transform="translate(489.88 -196.17)"/><path class="cls-3" d="M856.74,1158.67c0-113-89.69-205.06-201.78-208.86A180.53,180.53,0,0,0,501.24,674.67c-98.57,0-178.68,79-180.45,177.18A157.09,157.09,0,0,0,95.13,937.92a221.51,221.51,0,0,0-78.39-14.25c-122.6,0-222,99.39-222,222A221.41,221.41,0,0,0-133,1309.52h0a221.18,221.18,0,0,0,149.77,58.15q11.09,0,21.9-1.07h.17l-.17,1.08h643.1l2.12-3.12C782.07,1347.44,856.74,1261.78,856.74,1158.67Z" transform="translate(489.88 -196.17)"/><path class="cls-3" d="M-489.88,1204.42c0-113,89.7-205.06,201.78-208.86a179.63,179.63,0,0,1-26.78-94.64,180.5,180.5,0,0,1,180.5-180.5A180.49,180.49,0,0,1,46.08,897.6a157.08,157.08,0,0,1,225.65,86.07,221.55,221.55,0,0,1,78.39-14.25c122.61,0,222,99.39,222,222a221.41,221.41,0,0,1-72.22,163.85h0a221.2,221.2,0,0,1-149.78,58.15q-11.08,0-21.9-1.07h-.16l.16,1.08h-643.1l-2.12-3.12C-415.21,1393.19-489.88,1307.53-489.88,1204.42Z" transform="translate(489.88 -196.17)"/></svg>