<svg id="Items" xmlns="http://www.w3.org/2000/svg" viewBox="0 0 717.13 746.05"><defs><style>
.cls-1{fill:#A439F1;}
</style></defs><circle class="cls-1" cx="960" cy="540" r="110.63" transform="translate(-702.1 670.01) rotate(-45)"/><path class="cls-1" d="M1318.48,524c-.67-81.5-5.4-157.71-12.6-227.87A120.11,120.11,0,0,0,1209,190.42a1318.16,1318.16,0,0,0-496.56.3,120.12,120.12,0,0,0-96.52,104.1,2154.71,2154.71,0,0,0-.47,494.27A120.34,120.34,0,0,0,716.75,894.31,1610.33,1610.33,0,0,0,950.48,913a1610.39,1610.39,0,0,0,254.43-18.48,120.27,120.27,0,0,0,101.4-106.88A2428.63,2428.63,0,0,0,1318.48,524ZM1196,567.33a15.49,15.49,0,0,1-13.16,13.13l-64.36,9.19a15.47,15.47,0,0,0-12.15,9.46c-.47,1.17-1,2.33-1.46,3.48a15.46,15.46,0,0,0,1.83,15.45l38.62,51.49a15.48,15.48,0,0,1,0,18.59,187.72,187.72,0,0,1-37.52,37.47,15.48,15.48,0,0,1-18.32.17l-54-38.67a15.44,15.44,0,0,0-14.91-1.75l-.94.38a15.47,15.47,0,0,0-9.43,11.84l-10.9,66.05a15.49,15.49,0,0,1-13.07,12.83,187.6,187.6,0,0,1-53,0,15.46,15.46,0,0,1-13.12-13.16l-9.37-65.52a15.6,15.6,0,0,0-9.62-12.22l-.26-.11a15.59,15.59,0,0,0-15,1.69l-54.58,39.1a15.5,15.5,0,0,1-18.31-.18,188.22,188.22,0,0,1-37.51-37.49,15.48,15.48,0,0,1,0-18.58l39-52a15.49,15.49,0,0,0,1.84-15.44c-.54-1.24-1.07-2.49-1.57-3.74a15.46,15.46,0,0,0-12.16-9.48L737.17,580A15.49,15.49,0,0,1,724,566.85a187.6,187.6,0,0,1,0-53,15.49,15.49,0,0,1,12.83-13.07l66.41-10.95a15.62,15.62,0,0,0,11.87-9.53l.15-.36a15.63,15.63,0,0,0-1.87-15.36l-39.87-53.16a15.5,15.5,0,0,1,0-18.59,188.09,188.09,0,0,1,37.53-37.47,15.47,15.47,0,0,1,18.31-.17l54.08,38.77a15.47,15.47,0,0,0,15.16,1.57c.89-.38,1.79-.76,2.68-1.12a15.63,15.63,0,0,0,9.5-12.29l9.35-65.4a15.46,15.46,0,0,1,13.12-13.16,187.6,187.6,0,0,1,53,0,15.49,15.49,0,0,1,13.07,12.83q5.45,33,10.88,66a15.54,15.54,0,0,0,9.43,11.9c.87.35,1.73.71,2.59,1.08a15.38,15.38,0,0,0,15-1.72l53.67-38.47a15.48,15.48,0,0,1,18.32.17,187.72,187.72,0,0,1,37.52,37.47,15.48,15.48,0,0,1,0,18.59l-39.29,52.38a15.47,15.47,0,0,0-1.92,15.24c.3.71.6,1.43.89,2.14a15.4,15.4,0,0,0,11.81,9.38l64.89,10.7A15.49,15.49,0,0,1,1196,514.3a187.6,187.6,0,0,1,0,53Z" transform="translate(-601.44 -166.97)"/></svg>