<svg id="Items" xmlns="http://www.w3.org/2000/svg" viewBox="0 0 717.13 746.05"><defs>
<style>.cls-1{fill:#b5c4da;}</style></defs><path class="cls-1" d="M1197.84,538.3a189.16,189.16,0,0,0-1.88-24,15.49,15.49,0,0,0-12.83-13.07l-64.89-10.7a15.4,15.4,0,0,1-11.81-9.38c-.29-.71-.59-1.43-.89-2.14a15.47,15.47,0,0,1,1.92-15.24l39.29-52.38a15.48,15.48,0,0,0,0-18.59,187.72,187.72,0,0,0-37.52-37.47,15.48,15.48,0,0,0-18.32-.17l-53.67,38.47a15.38,15.38,0,0,1-15,1.72c-.86-.37-1.73-.73-2.59-1.08a15.54,15.54,0,0,1-9.43-11.9l-10.88-66a15.49,15.49,0,0,0-13.07-12.83,187.6,187.6,0,0,0-53,0,15.46,15.46,0,0,0-13.12,13.16l-9.35,65.4a15.63,15.63,0,0,1-9.5,12.29c-.89.36-1.79.74-2.68,1.12a15.47,15.47,0,0,1-15.16-1.57l-54.08-38.77a15.47,15.47,0,0,0-18.31.17,188.09,188.09,0,0,0-37.53,37.47,15.5,15.5,0,0,0,0,18.59l39.87,53.16a15.63,15.63,0,0,1,1.87,15.36l-.15.36a15.62,15.62,0,0,1-11.87,9.53l-66.41,10.95A15.49,15.49,0,0,0,724,513.82a187.6,187.6,0,0,0,0,53A15.49,15.49,0,0,0,737.17,580l65.45,9.35a15.46,15.46,0,0,1,12.16,9.48c.5,1.25,1,2.5,1.57,3.74A15.49,15.49,0,0,1,814.51,618l-39,52a15.48,15.48,0,0,0,0,18.58A188.22,188.22,0,0,0,813,726.07a15.5,15.5,0,0,0,18.31.18l54.58-39.1a15.59,15.59,0,0,1,15-1.69l.26.11a15.6,15.6,0,0,1,9.62,12.22l9.37,65.52a15.46,15.46,0,0,0,13.12,13.16,187.6,187.6,0,0,0,53,0,15.49,15.49,0,0,0,13.07-12.83l10.89-66.05a15.51,15.51,0,0,1,9.44-11.84l.94-.38a15.44,15.44,0,0,1,14.91,1.75l54,38.67a15.48,15.48,0,0,0,18.32-.17,187.72,187.72,0,0,0,37.52-37.47,15.48,15.48,0,0,0,0-18.59L1106.69,618a15.46,15.46,0,0,1-1.83-15.45c.5-1.15,1-2.31,1.46-3.48a15.47,15.47,0,0,1,12.15-9.46l64.36-9.19A15.49,15.49,0,0,0,1196,567.33,188.32,188.32,0,0,0,1197.84,538.3ZM960,650.63A110.63,110.63,0,1,1,1070.63,540,110.63,110.63,0,0,1,960,650.63Z" transform="translate(-601.44 -166.97)"/><path class="cls-1" d="M961.49,245A1244.13,1244.13,0,0,1,1194.33,267a42.12,42.12,0,0,1,34,37.05c7.5,73,11.6,147.2,12.2,220.55A2358.66,2358.66,0,0,1,1228.7,779.8a42.25,42.25,0,0,1-35.59,37.6A1535.81,1535.81,0,0,1,961.47,835c-3.48,0-7,0-10.46,0a1536.7,1536.7,0,0,1-222.4-17.78,42.45,42.45,0,0,1-35.69-37,2076.26,2076.26,0,0,1,.45-476.38,41.91,41.91,0,0,1,33.78-36.52A1243.58,1243.58,0,0,1,955.84,245l5.65,0h0m0-78-6,0a1318.5,1318.5,0,0,0-243.07,23.73,120.12,120.12,0,0,0-96.52,104.1,2154,2154,0,0,0-.46,494.27A120.32,120.32,0,0,0,716.75,894.31,1610.33,1610.33,0,0,0,950.48,913c3.68,0,7.34,0,11,0a1610.84,1610.84,0,0,0,243.44-18.52,120.27,120.27,0,0,0,101.4-106.88A2428.63,2428.63,0,0,0,1318.48,524c-.67-81.5-5.4-157.71-12.6-227.87A120.11,120.11,0,0,0,1209,190.42,1318.36,1318.36,0,0,0,961.48,167Z" transform="translate(-601.44 -166.97)"/></svg>