<svg id="Layer_1" data-name="Layer 1" xmlns="http://www.w3.org/2000/svg" viewBox="0 0 784 757.55"><defs><style>.cls-1{fill:#f9ae00;}.cls-2{fill:#fdd83b;}.cls-3,.cls-5{fill:#fff;}.cls-3{opacity:0.7;}.cls-4{opacity:0.6;}</style></defs><circle class="cls-1" cx="376.34" cy="378.78" r="207.51"/><path class="cls-2" d="M517.5,1360a12.44,12.44,0,0,1-12.44-12.44v-113.7a12.44,12.44,0,0,1,24.88,0v113.7A12.44,12.44,0,0,1,517.5,1360Z" transform="translate(-144 -602.45)"/><path class="cls-2" d="M517.5,741a12.44,12.44,0,0,1-12.44-12.44V614.89a12.44,12.44,0,0,1,24.88,0v113.7A12.44,12.44,0,0,1,517.5,741Z" transform="translate(-144 -602.45)"/><path class="cls-2" d="M884.19,996.15H770.49a12.44,12.44,0,1,1,0-24.87h113.7a12.44,12.44,0,1,1,0,24.87Z" transform="translate(-144 -602.45)"/><path class="cls-2" d="M317.23,820.56a12.4,12.4,0,0,1-7-2.15l-94.09-63.83a12.44,12.44,0,0,1,14-20.59l94.09,63.84a12.44,12.44,0,0,1-7,22.73Z" transform="translate(-144 -602.45)"/><path class="cls-2" d="M791.94,1235.58a12.4,12.4,0,0,1-7-2.15l-94.09-63.84a12.43,12.43,0,1,1,14-20.58l94.1,63.84a12.44,12.44,0,0,1-7,22.73Z" transform="translate(-144 -602.45)"/><path class="cls-2" d="M270.19,996.15H156.49a12.44,12.44,0,0,1,0-24.87h113.7a12.44,12.44,0,1,1,0,24.87Z" transform="translate(-144 -602.45)"/><path class="cls-2" d="M712.44,822.34a12.44,12.44,0,0,1-7-22.73l94.09-63.84a12.43,12.43,0,0,1,14,20.58l-94.09,63.84A12.4,12.4,0,0,1,712.44,822.34Z" transform="translate(-144 -602.45)"/><path class="cls-2" d="M249.81,1235.22a12.44,12.44,0,0,1-7-22.73l94.09-63.83a12.43,12.43,0,0,1,14,20.58l-94.09,63.84A12.39,12.39,0,0,1,249.81,1235.22Z" transform="translate(-144 -602.45)"/><rect class="cls-3" y="316.55" width="454" height="78" rx="39"/><rect class="cls-3" x="514" y="316.55" width="270" height="78" rx="39"/><rect class="cls-3" x="398" y="425.55" width="205" height="54" rx="27"/><rect class="cls-3" x="93" y="425.55" width="262" height="54" rx="27"/><rect class="cls-3" x="24" y="526.55" width="731" height="54" rx="27"/><g class="cls-4"><path class="cls-5" d="M497.57,1131.5H334a4.5,4.5,0,0,1,0-9H497.57a39,39,0,0,0,38.93-38.93v-38.85a39,39,0,0,0-38.8-38.93l-44.14-.14a38.93,38.93,0,1,0-.13,77.85H483.5a19,19,0,0,0,19-19v-16a19,19,0,0,0-38,0V1064a4.5,4.5,0,0,1-9,0v-15.5a28,28,0,0,1,56,0v16a28,28,0,0,1-28,28H453.43a47.93,47.93,0,1,1,.16-95.85l44.14.14a48,48,0,0,1,47.77,47.93v38.85A48,48,0,0,1,497.57,1131.5Z" transform="translate(-144 -602.45)"/></g><g class="cls-4"><path class="cls-5" d="M667.19,1149.37H503.62a4.5,4.5,0,1,1,0-9H667.19a39,39,0,0,0,38.93-38.92v-38.86a39,39,0,0,0-38.8-38.92l-44.14-.15a38.93,38.93,0,1,0-.13,77.85h30.07a19,19,0,0,0,19-19v-16a19,19,0,0,0-38,0v15.5a4.5,4.5,0,0,1-9,0v-15.5a28,28,0,0,1,56,0v16a28,28,0,0,1-28,28H623.05a47.93,47.93,0,1,1,.16-95.85l44.14.15a48,48,0,0,1,47.77,47.92v38.86A48,48,0,0,1,667.19,1149.37Z" transform="translate(-144 -602.45)"/></g></svg>