<svg id="Layer_1" data-name="Layer 1" xmlns="http://www.w3.org/2000/svg" xmlns:xlink="http://www.w3.org/1999/xlink" viewBox="0 0 488 488.75"><defs><style>.cls-1{fill:url(#linear-gradient);}.cls-2{fill:#fff;}.cls-3{fill:#320036;}</style><linearGradient id="linear-gradient" y1="244.75" x2="488" y2="244.75" gradientUnits="userSpaceOnUse"><stop offset="0" stop-color="#f08302"/><stop offset="0.25" stop-color="#f08302"/><stop offset="0.25" stop-color="#c86d02"/><stop offset="0.25" stop-color="#f23528"/><stop offset="0.5" stop-color="#f23528"/><stop offset="0.5" stop-color="#2589c5"/><stop offset="0.75" stop-color="#2589c5"/><stop offset="0.75" stop-color="#2baf92"/><stop offset="1" stop-color="#2baf92"/></linearGradient></defs><rect class="cls-1" y="0.75" width="488" height="488" rx="98.5"/><rect class="cls-2" width="488" height="429" rx="98.5"/><path class="cls-3" d="M621.7,273.5H534.56a67.91,67.91,0,0,0-67.91,67.91h0V612.28c0,19,15.58,35.07,34.62,34.71a33.94,33.94,0,0,0,33.29-33.94V494.88h86.93A67.91,67.91,0,0,0,689.4,427h0V341.41h0v-.22A67.7,67.7,0,0,0,621.7,273.5ZM595.49,427H534.56V367.4a26,26,0,0,1,26-26h34.93a26,26,0,0,1,26,26V401A26,26,0,0,1,595.49,427Z" transform="translate(-334.03 -245.75)"/><path class="cls-3" d="M602.47,378.08H552.22a5.44,5.44,0,0,1,0-10.87h50.25a5.44,5.44,0,1,1,0,10.87Z" transform="translate(-334.03 -245.75)"/><path class="cls-3" d="M580.74,401.17H552.22a5.44,5.44,0,0,1,0-10.87h28.52a5.44,5.44,0,0,1,0,10.87Z" transform="translate(-334.03 -245.75)"/></svg>