<svg id="Layer_1" data-name="Layer 1" xmlns="http://www.w3.org/2000/svg" viewBox="0 0 1062 1099.06"><defs><style>.cls-1{fill:#e6e6e6;}.cls-2{fill:#b3b3b3;}</style></defs><circle class="cls-1" cx="242.84" cy="769.06" r="24"/><circle class="cls-1" cx="466.84" cy="970.06" r="24"/><circle class="cls-1" cx="605.84" cy="779.06" r="24"/><circle class="cls-1" cx="362.84" cy="769.06" r="24"/><circle class="cls-1" cx="242.84" cy="862.06" r="24"/><circle class="cls-1" cx="706.84" cy="938.06" r="24"/><circle class="cls-1" cx="853.84" cy="755.06" r="24"/><circle class="cls-1" cx="490.84" cy="731.06" r="24"/><circle class="cls-1" cx="386.84" cy="946.06" r="24"/><circle class="cls-1" cx="590.84" cy="979.06" r="24"/><circle class="cls-1" cx="834.84" cy="862.06" r="24"/><circle class="cls-1" cx="739.84" cy="1059.06" r="24"/><circle class="cls-1" cx="715.84" cy="835.06" r="24"/><circle class="cls-1" cx="490.84" cy="1075.06" r="24"/><circle class="cls-1" cx="805.84" cy="970.06" r="24"/><circle class="cls-1" cx="338.84" cy="1018.06" r="24"/><circle class="cls-1" cx="207.84" cy="994.06" r="24"/><circle class="cls-1" cx="526.84" cy="872.06" r="24"/><circle class="cls-1" cx="159.84" cy="779.06" r="24"/><path class="cls-2" d="M1033.16,439.94c0-113-89.7-205-201.78-208.86a180.5,180.5,0,1,0-334.18-98,157.08,157.08,0,0,0-225.65,86.07,221.55,221.55,0,0,0-78.39-14.25c-122.61,0-222,99.39-222,222A221.41,221.41,0,0,0,43.38,590.79h0a221.19,221.19,0,0,0,149.78,58.14q11.09,0,21.9-1.06l.16,0-.16,1.08h643.1l2.12-3.12C958.49,628.71,1033.16,543.05,1033.16,439.94Z" transform="translate(28.84 44.06)"/></svg>