<svg id="Layer_1" data-name="Layer 1" xmlns="http://www.w3.org/2000/svg" viewBox="0 0 1062 1058.25"><defs><style>.cls-1{fill:#e09b2d;}.cls-2{fill:#fdb536;}.cls-3{fill:#666;}.cls-4{fill:#4d4d4d;}</style></defs><polygon class="cls-1" points="804.29 688.13 732.6 784.81 768.45 784.81 651.07 928.25 686.26 808.19 634.78 808.19 674.96 688.13 804.29 688.13"/><polygon class="cls-2" points="262.94 688.5 373.33 837.37 318.13 837.37 498.88 1058.25 444.69 873.38 523.96 873.38 462.09 688.5 262.94 688.5"/><path class="cls-3" d="M1111.62,895.75c0-113-89.69-205.06-201.78-208.86A180.53,180.53,0,0,0,756.12,411.75c-98.57,0-178.68,79-180.45,177.18A157.09,157.09,0,0,0,350,675a221.51,221.51,0,0,0-78.39-14.25c-122.6,0-222,99.39-222,222a221.41,221.41,0,0,0,72.22,163.85h0a221.18,221.18,0,0,0,149.77,58.15q11.08,0,21.9-1.07h.17l-.17,1.08h643.1l2.12-3.12C1037,1084.52,1111.62,998.86,1111.62,895.75Z" transform="translate(-49.63 -411.75)"/><path class="cls-4" d="M853.54,905c-1.25-11.33-4.17-37.86-23.3-58.56-21.18-22.92-55.83-31.82-92.78-25.07a105.93,105.93,0,0,0,2-34.84c-3.12-28.57-17.67-54.3-39.94-70.59-21.07-15.41-48.52-21.79-75.3-17.49a104.91,104.91,0,0,0-56.6,28.23,15,15,0,0,0,1.58,22.76l0,0a15.08,15.08,0,0,0,19.43-1.34c25.27-24.1,65.33-28.31,93.15-8,15.48,11.32,25.62,29.41,27.83,49.62a75.83,75.83,0,0,1-10.81,47.94,15,15,0,1,0,25.52,15.77l.68-1.15a15,15,0,0,0,9.1.5c30-7.84,58.65-2.73,74.08,14,12.42,13.44,14.51,32.39,15.52,41.49.37,3.44,3.26,34.24-11.89,57-18.72,28.1-61.55,39.54-105.23,29.29a15,15,0,0,0-17.6,9.84v0a15,15,0,0,0,10.66,19.35,168.56,168.56,0,0,0,23.24,3.84,149.9,149.9,0,0,0,49.32-3.33c27.93-6.75,50.87-21.8,64.57-42.38C857.4,951,854.36,912.39,853.54,905Z" transform="translate(-49.63 -411.75)"/><path class="cls-4" d="M456.38,648.22a326.3,326.3,0,0,1,118.33-59.9C563,582.27,497.24,551.38,429,585c-55.43,27.31-75,78.71-79,90l9.42-3.59-3,4.79-7.79,1.93L350,675c-15.83-5.78-86.93-29.78-166,4-16.94,7.24-74.21,34.2-109,100C29.81,864.48,58.67,947.21,63,959c28.64,77.89,91.54,112.94,107,121l5-11.19c-62.31-90.65-58.34-196.41-12.17-257l.54.6q2.08-1.89,4.46-3.93l68.07-39.19q4.63-1.57,9.49-3L307.83,760l50.67,11.22c1.11.41,2.21.8,3.32,1.24L362,772l-.91-.41A330,330,0,0,1,456.38,648.22ZM240,766.87l.05,0h.08Z" transform="translate(-49.63 -411.75)"/></svg>